<svg width="316" height="102" viewBox="0 0 316 102" fill="none" xmlns="http://www.w3.org/2000/svg">
<path d="M0.140423 79V26.8292H15.0744L15.7622 43.8265L12.8147 40.5842C13.6007 37.7677 14.8779 35.246 16.6464 33.019C18.4804 30.792 20.6092 29.0235 23.0327 27.7135C25.4562 26.4035 28.0434 25.7485 30.7944 25.7485C31.9734 25.7485 33.0542 25.8467 34.0367 26.0432C35.0847 26.2397 36.0344 26.469 36.8859 26.731L32.5629 44.1212C31.8424 43.6627 30.8599 43.3025 29.6154 43.0405C28.4364 42.713 27.1919 42.5492 25.8819 42.5492C24.4409 42.5492 23.0982 42.8112 21.8537 43.3352C20.6092 43.7937 19.5612 44.4815 18.7097 45.3985C17.8582 46.3155 17.1704 47.3962 16.6464 48.6407C16.1879 49.8852 15.9587 51.2935 15.9587 52.8655V79H0.140423ZM45.7361 79V26.8292H61.4561V79H45.7361ZM53.5961 16.513C50.6486 16.513 48.3233 15.8252 46.6203 14.4497C44.9828 13.0087 44.1641 10.9782 44.1641 8.35825C44.1641 6.00025 45.0156 4.06799 46.7186 2.56149C48.4216 1.05499 50.7141 0.301744 53.5961 0.301744C56.5436 0.301744 58.8361 1.02224 60.4736 2.46325C62.1111 3.83875 62.9299 5.80375 62.9299 8.35825C62.9299 10.7817 62.0784 12.7467 60.3754 14.2532C58.7378 15.7597 56.4781 16.513 53.5961 16.513ZM92.2414 79L70.4299 26.8292H87.8201L100.789 65.8345L96.9574 66.2275L110.319 26.8292H127.513L104.621 79H92.2414ZM153.532 79.8843C149.143 79.8843 145.213 78.738 141.742 76.4455C138.336 74.0875 135.617 70.878 133.587 66.817C131.556 62.6905 130.541 58.04 130.541 52.8655C130.541 47.56 131.556 42.8767 133.587 38.8157C135.617 34.7547 138.401 31.578 141.938 29.2855C145.475 26.9275 149.503 25.7485 154.023 25.7485C156.512 25.7485 158.772 26.1087 160.802 26.8292C162.898 27.5497 164.732 28.565 166.304 29.875C167.876 31.1195 169.219 32.5932 170.332 34.2962C171.446 35.9337 172.265 37.7022 172.789 39.6017L169.546 39.2087V26.8292H185.168V79H169.252V66.424L172.789 66.3257C172.265 68.1597 171.413 69.8955 170.234 71.533C169.055 73.1705 167.614 74.6115 165.911 75.856C164.208 77.1005 162.309 78.083 160.213 78.8035C158.117 79.524 155.89 79.8843 153.532 79.8843ZM157.855 66.6205C160.278 66.6205 162.374 66.0637 164.143 64.9502C165.911 63.8367 167.287 62.2647 168.269 60.2342C169.252 58.1382 169.743 55.682 169.743 52.8655C169.743 50.049 169.252 47.6255 168.269 45.595C167.287 43.499 165.911 41.8942 164.143 40.7807C162.374 39.6017 160.278 39.0122 157.855 39.0122C155.497 39.0122 153.433 39.6017 151.665 40.7807C149.962 41.8942 148.619 43.499 147.637 45.595C146.654 47.6255 146.163 50.049 146.163 52.8655C146.163 55.682 146.654 58.1382 147.637 60.2342C148.619 62.2647 149.962 63.8367 151.665 64.9502C153.433 66.0637 155.497 66.6205 157.855 66.6205ZM199.039 100.615V26.8292H213.973L214.563 38.521L211.615 37.6367C212.074 35.4752 213.187 33.5102 214.956 31.7417C216.724 29.9732 218.951 28.565 221.637 27.517C224.388 26.4035 227.27 25.8467 230.283 25.8467C234.737 25.8467 238.699 27.0257 242.171 29.3838C245.642 31.6762 248.361 34.853 250.326 38.914C252.356 42.9095 253.371 47.56 253.371 52.8655C253.371 58.1055 252.356 62.756 250.326 66.817C248.361 70.878 245.61 74.0875 242.073 76.4455C238.601 78.738 234.606 79.8843 230.086 79.8843C227.139 79.8843 224.322 79.3275 221.637 78.214C218.951 77.1005 216.691 75.594 214.857 73.6945C213.023 71.795 211.812 69.7317 211.222 67.5047L214.857 66.1292V100.615H199.039ZM226.254 66.6205C228.612 66.6205 230.676 66.0637 232.444 64.9502C234.213 63.7712 235.588 62.1665 236.571 60.136C237.553 58.1055 238.044 55.682 238.044 52.8655C238.044 50.1145 237.553 47.7237 236.571 45.6932C235.588 43.5972 234.213 41.9925 232.444 40.879C230.741 39.7 228.678 39.1105 226.254 39.1105C223.831 39.1105 221.735 39.6672 219.966 40.7807C218.198 41.8942 216.822 43.499 215.84 45.595C214.857 47.691 214.366 50.1145 214.366 52.8655C214.366 55.682 214.857 58.1055 215.84 60.136C216.822 62.1665 218.198 63.7712 219.966 64.9502C221.735 66.0637 223.831 66.6205 226.254 66.6205ZM268.467 101.598L280.356 73.5962L280.552 81.6528L255.4 26.8292H273.183L284.187 53.062C284.777 54.372 285.334 55.7802 285.858 57.2867C286.382 58.7932 286.775 60.2342 287.037 61.6097L284.875 62.887C285.268 61.9045 285.694 60.6927 286.152 59.2517C286.676 57.7452 287.233 56.1405 287.823 54.4375L297.451 26.8292H315.333L293.128 79L284.089 101.598H268.467Z" fill="#FCFBF9"/>
<path d="M99 37L88.6077 7L109.392 7L99 37Z" fill="#BC9C6A"/>
</svg>
