<svg width="573" height="94" viewBox="0 0 573 94" fill="none" xmlns="http://www.w3.org/2000/svg">
<path d="M32.604 54.8918H17.952V91.1918H0V1.43177H33C55.704 1.43177 67.056 10.0558 67.056 27.3038C67.056 39.9758 61.512 48.1158 50.424 51.7238L77.484 91.1918H56.76L32.604 54.8918ZM17.952 42.0878H33C38.544 42.0878 42.592 40.9438 45.144 38.6558C47.784 36.3678 49.104 32.8918 49.104 28.2278C49.104 18.8998 43.736 14.2358 33 14.2358H17.952V42.0878Z" fill="#011B40"/>
<path d="M91.3327 1.43177H109.285V91.1918H91.3327V1.43177Z" fill="#011B40"/>
<path d="M209.593 1.43177L175.009 91.9838H156.925L122.341 1.43177H140.689L166.165 74.4278L191.509 1.43177H209.593Z" fill="#011B40"/>
<path d="M263.666 67.056H230.402L221.954 91.344H203.87L238.454 0.396003H255.614L290.33 91.344H272.114L263.666 67.056ZM259.178 54.384L247.034 19.272L234.758 54.384H259.178Z" fill="#011B40"/>
<path d="M343.62 93.06C333.236 93.06 324.436 90.948 317.22 86.724C310.092 82.412 304.724 76.736 301.116 69.696C297.596 62.568 295.836 54.78 295.836 46.332C295.836 37.972 297.684 30.272 301.38 23.232C305.164 16.192 310.752 10.56 318.144 6.336C325.536 2.112 334.468 0 344.94 0C350.484 0 355.676 0.748001 360.516 2.244C365.444 3.74 369.668 5.808 373.188 8.448L368.436 20.724C365.444 18.524 361.924 16.72 357.876 15.312C353.916 13.904 349.604 13.2 344.94 13.2C338.428 13.2 332.796 14.652 328.044 17.556C323.38 20.46 319.816 24.464 317.352 29.568C314.976 34.584 313.788 40.216 313.788 46.464C313.788 52.888 314.932 58.652 317.22 63.756C319.508 68.772 322.896 72.732 327.384 75.636C331.872 78.54 337.284 79.992 343.62 79.992C348.724 79.992 353.476 79.156 357.876 77.484C362.276 75.724 366.148 73.568 369.492 71.016L373.98 83.028C370.196 85.932 365.664 88.352 360.384 90.288C355.104 92.136 349.516 93.06 343.62 93.06Z" fill="#011B40"/>
<path d="M430.407 93.192C420.551 93.192 412.147 91.124 405.195 86.988C398.243 82.764 392.963 77.132 389.355 70.092C385.835 62.964 384.075 55.132 384.075 46.596C384.075 37.972 385.835 30.14 389.355 23.1C392.875 16.06 398.111 10.472 405.063 6.336C412.103 2.112 420.551 0 430.407 0C440.175 0 448.535 2.112 455.487 6.336C462.527 10.472 467.807 16.06 471.327 23.1C474.935 30.14 476.739 37.928 476.739 46.464C476.739 55.088 474.935 62.964 471.327 70.092C467.807 77.132 462.571 82.764 455.619 86.988C448.667 91.124 440.263 93.192 430.407 93.192ZM430.539 79.992C436.435 79.992 441.495 78.54 445.719 75.636C450.031 72.732 453.287 68.772 455.487 63.756C457.775 58.652 458.919 52.888 458.919 46.464C458.919 40.128 457.775 34.452 455.487 29.436C453.287 24.42 450.031 20.46 445.719 17.556C441.495 14.652 436.435 13.2 430.539 13.2C424.555 13.2 419.407 14.652 415.095 17.556C410.871 20.46 407.659 24.42 405.459 29.436C403.259 34.452 402.159 40.128 402.159 46.464C402.159 52.888 403.259 58.652 405.459 63.756C407.659 68.772 410.871 72.732 415.095 75.636C419.407 78.54 424.555 79.992 430.539 79.992Z" fill="#011B40"/>
<path d="M572.668 1.584V91.344L556.696 91.476L510.76 28.116L512.08 58.344V91.344H494.128V1.584H510.1L556.036 64.812L554.716 32.868V1.584H572.668Z" fill="#011B40"/>
<path d="M166.168 46.192L181.668 1.19202H150.668L166.168 46.192Z" fill="#0CEFE7"/>
</svg>
